<?xml version="1.0" encoding="utf-8"?>
<!-- Generator: Adobe Illustrator 22.0.1, SVG Export Plug-In . SVG Version: 6.00 Build 0)  -->
<svg version="1.1" id="Layer_1" xmlns="http://www.w3.org/2000/svg" xmlns:xlink="http://www.w3.org/1999/xlink" x="0px" y="0px"
	 viewBox="0 0 120 35" style="enable-background:new 0 0 120 35;" xml:space="preserve">
<style type="text/css">
	.st0{fill:#231F20;}
</style>
<title>intuit_logo</title>
<path class="st0" d="M67.5,35c-0.4-0.1-0.9-0.1-1.3-0.2c-2.7-0.4-4.8-2.5-5.3-5.2c-0.3-1-0.4-2-0.4-3.1c0-5,0-10,0-15
	c0-0.8,0.3-1.1,1.1-1.2c1.3,0,2.6,0,3.9,0c0.7,0,0.9,0.3,1,1c0,0.1,0,0.3,0,0.4c0,4.6,0,9.1,0,13.6c0,0.7,0.1,1.3,0.3,2
	c0.3,1.2,1.4,2.1,2.6,2.2c1.6,0.1,3.2-0.2,4.5-1c0.6-0.3,1.1-0.7,1.7-1.1c0.2-0.1,0.3-0.3,0.2-0.5V11.7c0-1,0.3-1.3,1.3-1.3
	s2.2,0,3.4,0h0.1c0.9,0,1.2,0.3,1.2,1.3v21.3c0,0.2,0,0.4,0,0.6c-0.1,0.6-0.3,0.9-0.9,0.9c-1.2,0-2.4,0-3.7,0c-0.6,0-1-0.4-1-1
	c0-0.4,0-0.8,0-1.2h-0.1l-0.6,0.5c-1.8,1.3-4,2.1-6.3,2.3c-0.1,0-0.1,0-0.2,0H67.5z"/>
<path class="st0" d="M0,11.1c0.1-0.5,0.6-0.8,1.1-0.7c1.3,0,2.5,0,3.8,0c0.8,0,1.1,0.3,1.1,1.1v21.7c0,0.1,0,0.2,0,0.3
	c0,0.5-0.4,1-0.9,1c0,0-0.1,0-0.1,0c-1.3,0-2.7,0-4,0c-0.5,0-0.9-0.4-1-0.9L0,11.1z"/>
<path class="st0" d="M108.5,0l0.7,0.2c1.9,0.7,2.9,2.7,2.2,4.6c-0.4,1.2-1.5,2.1-2.8,2.4c-1.9,0.5-3.9-0.7-4.4-2.6s0.7-3.9,2.6-4.4
	c0.2-0.1,0.4-0.1,0.6-0.1h0.1L108.5,0z"/>
<path class="st0" d="M47,0c0.3,0.1,0.7,0.2,1,0.3c1.8,0.8,2.7,2.9,1.9,4.8c-0.6,1.4-2,2.2-3.5,2.2c-1.7-0.1-3.1-1.3-3.4-3
	c-0.3-2,1-3.9,3-4.2c0,0,0,0,0,0h0.2L47,0z"/>
<path class="st0" d="M120,33.3c0,0,0,0.1-0.1,0.2c-0.2,0.8-1,1.2-1.8,1.1c-0.9-0.1-1.5-0.9-1.4-1.8c0.1-0.7,0.7-1.3,1.4-1.4
	c0.8-0.1,1.5,0.4,1.7,1.1c0,0.1,0,0.1,0.1,0.2L120,33.3z M119.7,32.9c0-0.7-0.6-1.3-1.4-1.3c-0.7,0-1.3,0.6-1.3,1.4
	c-0.1,0.7,0.5,1.4,1.2,1.4c0.7,0.1,1.4-0.5,1.4-1.2C119.7,33.2,119.7,33.1,119.7,32.9L119.7,32.9z"/>
<path class="st0" d="M17.9,12.6c0.6-0.4,1.1-0.7,1.6-1c2.2-1.4,4.9-2,7.5-1.8c1.7,0.1,3.4,0.8,4.6,2c0.9,1,1.6,2.3,1.8,3.6
	c0.2,1.1,0.3,2.1,0.3,3.2V33c0,0.2,0,0.3,0,0.5c0,0.6-0.5,1-1.1,0.9c0,0,0,0,0,0h-3.8c-0.6,0-1-0.4-1.1-0.9c0,0,0,0,0-0.1
	c0-0.2,0-0.3,0-0.5V19.8c0-0.8-0.1-1.6-0.3-2.4C27.3,16,26.1,15,24.7,15c-1.7-0.1-3.4,0.4-4.9,1.3c-0.5,0.2-0.9,0.6-1.3,0.9
	c-0.2,0.1-0.3,0.3-0.3,0.5c0,5.1,0,10.2,0,15.3c0,0.2,0,0.4,0,0.5c0,0.5-0.4,0.9-0.9,0.9c0,0,0,0-0.1,0c-1.3,0-2.7,0-4,0
	c-0.6,0-1-0.4-1-1V11.8c0-1.1,0.3-1.4,1.4-1.4h2.9c1,0,1.2,0.2,1.3,1.2C17.9,11.9,17.9,12.3,17.9,12.6z"/>
<path class="st0" d="M105,15.6h-5.6c-0.8,0-1.1-0.3-1.1-1.1v-3.3c0-0.6,0.2-0.9,0.8-0.9h17.4c0.2,0,0.4,0,0.5,0
	c0.4,0,0.6,0.3,0.6,0.6c0,0,0,0,0,0c0,1.2,0,2.5,0,3.7c0,0.5-0.4,0.8-1,0.8H111v17.3c0,0.2,0,0.3,0,0.5c0,0.5-0.4,1-0.9,1
	c0,0-0.1,0-0.1,0c-1.3,0-2.7,0-4,0c-0.5,0-1-0.4-1-0.9c0,0,0-0.1,0-0.1c0-0.2,0-0.3,0-0.5c0-5.7,0-11.3,0-16.9V15.6z"/>
<path class="st0" d="M49.6,15.6V33c0,1.1-0.3,1.4-1.4,1.4h-3.3c-0.2,0-0.3,0-0.5,0c-0.5-0.1-0.8-0.4-0.8-0.9c0-0.2,0-0.3,0-0.5V15.6
	H38c-0.8,0-1.1-0.3-1.1-1.1v-3.2c0-0.7,0.2-0.9,0.9-1h17.3c0.2,0,0.4,0,0.5,0c0.3,0,0.6,0.3,0.6,0.6c0,0,0,0,0,0c0,1.2,0,2.5,0,3.8
	c0,0.5-0.4,0.8-1,0.8L49.6,15.6L49.6,15.6z"/>
<path class="st0" d="M88.1,22.3V11.6c0-1,0.2-1.3,1.3-1.3H93c0.8,0,1.1,0.3,1.1,1.1v21.8c0.1,0.5-0.3,1-0.9,1.1c-0.1,0-0.2,0-0.3,0
	h-3.8c-0.8,0-1.1-0.4-1.2-1.2c0-0.1,0-0.2,0-0.4L88.1,22.3z"/>
<path class="st0" d="M118.6,33.1l0.5,0.8c-0.1,0.1-0.3,0-0.4-0.1c0,0,0,0,0,0c-0.1-0.2-0.2-0.3-0.3-0.4c-0.1-0.2-0.2-0.2-0.4-0.2
	c0,0,0,0,0,0v0.8h-0.3V32c0.3,0,0.5,0,0.8,0s0.5,0.2,0.6,0.4S119,32.9,118.6,33.1z M118,32.9c0.2,0,0.4,0,0.6,0
	c0.1-0.1,0.2-0.2,0.2-0.3c0-0.1-0.1-0.2-0.2-0.2c-0.2,0-0.4,0-0.6,0V32.9z"/>
</svg>
